<?xml version="1.0" encoding="UTF-8" standalone="no"?>
<!-- Created with Inkscape (http://www.inkscape.org/) -->

<svg
   width="140.75185mm"
   height="26.435898mm"
   viewBox="0 0 140.75185 26.435898"
   version="1.1"
   id="svg5"
   xml:space="preserve"
   xmlns:inkscape="http://www.inkscape.org/namespaces/inkscape"
   xmlns:sodipodi="http://sodipodi.sourceforge.net/DTD/sodipodi-0.dtd"
   xmlns="http://www.w3.org/2000/svg"
   xmlns:svg="http://www.w3.org/2000/svg"><sodipodi:namedview
     id="namedview7"
     pagecolor="#ffffff"
     bordercolor="#000000"
     borderopacity="0.25"
     inkscape:showpageshadow="2"
     inkscape:pageopacity="0.0"
     inkscape:pagecheckerboard="0"
     inkscape:deskcolor="#d1d1d1"
     inkscape:document-units="mm"
     showgrid="false" /><defs
     id="defs2" /><g
     inkscape:label="Layer 1"
     inkscape:groupmode="layer"
     id="layer1"
     transform="translate(-41.083833,-23.282913)"><g
       id="g4138"
       transform="matrix(0.13650447,0,0,0.13650447,41.083832,23.282913)"><g
         inkscape:label="Layer 1"
         id="layer1-5"
         style="stroke:none"
         inkscape:export-filename="logoplatynou.svg"
         inkscape:export-xdpi="61.927616"
         inkscape:export-ydpi="61.927616"
         transform="translate(-16.822974,-12.529328)"><path
           style="display:inline;fill:#00617b;fill-opacity:1;stroke:none;stroke-width:1.858;stroke-dasharray:none;stroke-opacity:1"
           id="path603"
           sodipodi:type="arc"
           sodipodi:cx="105.72114"
           sodipodi:cy="102.74453"
           sodipodi:rx="88.898163"
           sodipodi:ry="90.215202"
           sodipodi:start="0"
           sodipodi:end="6.2739087"
           sodipodi:open="true"
           sodipodi:arc-type="arc"
           d="M 194.6193,102.74453 A 88.898163,90.215202 0 0 1 105.92731,192.95949 88.898163,90.215202 0 0 1 16.823931,103.16297 88.898163,90.215202 0 0 1 105.10264,12.531511 88.898163,90.215202 0 0 1 194.61548,101.90765"
           sodipodi:insensitive="true" /><path
           style="fill:#ffffff;fill-opacity:1;stroke:none;stroke-width:0.458;stroke-dasharray:none;stroke-opacity:1"
           d="m 54.897488,118.62163 c 0,0 -3.659831,-43.056851 53.175212,-46.286114 0,0 5.5974,-17.222742 25.61883,-16.576889 20.02144,0.645853 21.959,16.361604 21.959,18.945016 2.40418,4.998788 17.87455,3.696021 22.60485,2.798695 0.66722,-0.135221 2.95415,-0.11132 2.75039,2.586597 -4.87479,15.816936 -23.35383,17.257675 -32.67491,14.205577 0,0 -8.39608,10.548928 -17.65331,18.083878 0,0 -3.22926,10.11836 11.84064,16.57689 0,0 3.21189,1.37329 -0.21529,2.36813 -6.09191,-0.21671 -5.39948,-0.29908 -5.39948,-0.29908 l 3.6992,2.57623 c 0,0 1.156,0.82571 1.45325,1.28811 0.29726,0.4624 0.42937,1.25509 -0.75965,1.35418 -1.18903,0.0991 -2.64229,0.4624 -6.67177,-0.82572 -3.26983,-1.55234 -3.10469,-1.48628 -3.30286,-1.42023 -0.19817,0.0661 -0.33029,0.6936 0.49543,1.3872 0.82571,0.6936 1.81657,1.51932 1.98171,1.8496 0.16514,0.33029 0.99086,0.85874 -0.26423,1.3872 -1.25508,0.52846 -5.58183,-1.32114 -5.58183,-1.32114 0,0 -15.61084,-5.52399 -14.75848,-21.88941 0,0 -0.51141,9.37602 0,10.56933 0.51142,1.19332 -9.88744,7.84177 -19.263465,8.01224 0,0 8.694135,-12.78549 -9.205552,-20.11583 0,0 14.831167,8.18271 4.261829,21.99104 0,0 8.710931,3.71701 9.204355,4.26526 0.493424,0.54825 2.576773,2.30264 -1.864046,2.41229 -4.440815,0.10965 -5.482488,-0.54825 -5.482488,-0.54825 0,0 6.524161,4.44082 5.482488,5.59214 -1.041673,1.15132 -5.592138,-0.0548 -11.513224,-2.68642 0,0 2.412294,2.57677 2.796068,2.8509 0.383775,0.27412 0.877198,2.96054 -5.592137,0.38377 -6.469336,-2.57677 -11.677699,-6.03074 -9.868478,-12.93867 0,0 -7.511009,-3.17984 -9.046105,-4.11187 0,0 -20.723804,12.93868 -26.86419,8.05926 -6.140387,-4.87941 1.535096,-10.52638 3.728091,-11.6777 2.192995,-1.15132 14.838287,-8.15289 14.930152,-8.84621 z"
           id="path2914"
           sodipodi:nodetypes="ccscccccccccssccsssccscccsscscssccssc" /><path
           style="fill:#00617b;fill-opacity:1;stroke:none;stroke-width:0.457999;stroke-dasharray:none;stroke-opacity:1"
           id="path3022"
           sodipodi:type="arc"
           sodipodi:cx="140.4297"
           sodipodi:cy="73.471817"
           sodipodi:rx="4.9267778"
           sodipodi:ry="4.7614498"
           sodipodi:start="0"
           sodipodi:end="6.2739087"
           sodipodi:open="true"
           sodipodi:arc-type="arc"
           d="m 145.35648,73.471817 a 4.9267778,4.7614498 0 0 1 -4.91535,4.761437 4.9267778,4.7614498 0 0 1 -4.93815,-4.739352 4.9267778,4.7614498 0 0 1 4.89245,-4.78342 4.9267778,4.7614498 0 0 1 4.96084,4.717166" /></g></g><text
       xml:space="preserve"
       style="font-style:normal;font-variant:normal;font-weight:bold;font-stretch:normal;font-size:24.576px;font-family:'Helvetica Neue';-inkscape-font-specification:'Helvetica Neue Bold';fill:#00617b;fill-opacity:1;stroke:none;stroke-width:0.246621"
       x="69.007454"
       y="44.729881"
       id="text4142"><tspan
         sodipodi:role="line"
         id="tspan4140"
         style="font-style:normal;font-variant:normal;font-weight:bold;font-stretch:normal;font-family:'Helvetica Neue';-inkscape-font-specification:'Helvetica Neue Bold';fill:#00617b;fill-opacity:1;stroke:none;stroke-width:0.246621"
         x="69.007454"
         y="44.729881">Platyfend</tspan></text></g></svg>
